# xmcd
#
# Track frame offsets:
#	150
#	17147
#	31355
#	46249
#	59726
#	75711
#	92184
#	108923
#	125378
#	141877
#	160355
#	173384
#	187447
#	204060
#	216493
#	231270
#	246228
#	260004
#
# Disc length: 3654 seconds
#
# Revision: 1
# Processed by: cddbd v1.5.2PL0 Copyright (c) Steve Scherf et al.
# Submitted via: audiograbber 1.83.01
#
DISCID=060e4412
DTITLE=Various Artist - Super dance hits vol 2
DYEAR=2018
DGENRE=DANCE
TTITLE0=01ENRIQUE IGLESIAS FT BAD BUNNY - EL RANO
TTITLE1=02 JUSTIN BIEBER BLOODPOP - FRIENDS
TTITLE2=03 JENNIFER LOPEZ FT WINIS - AMOR, AMOR
TTITLE3=04 DARA - VSE NA MEN
TTITLE4=05 CALVIN HARRIS& DUA LIPA -  ONE KISS
TTITLE5=06 J BALVIN , ANITA ,JEON - MACHIKA
TTITLE6=07 ONEREPUBLIC - NO VACANCY
TTITLE7=08 MALUMA - EL PRESTAMO
TTITLE8=09 KIGO , SELENA GOMES - IT AIN'T ME
TTITLE9=10 DEEPERISE FT JABBAR - RAF
TTITLE10=11 LUIS FONSI , DEMI LOVA - ECHAME LA CUPA 
TTITLE11=12 PAVEL and VENCI VENC - HAVANA
TTITLE12=13 DAN BALAN FT MATTEO - ALEGRO VENTIGO
TTITLE13=14 JAX JONES , DEMI LOVAVATO , STEFFLON DON - INSTRUCTION
TTITLE14=15 ARASH FT HELENA DOOSET DARAM
TTITLE15=16 SHAWN MENDES - THERE'S NOTHING HOLDIN ME BACK
TTITLE16=17 ELENI FOURIERA - FUEGO
TTITLE17=18 BRIANA - LOST IN ISTAMBUL
EXTD=
EXTT0=
EXTT1=
EXTT2=
EXTT3=
EXTT4=
EXTT5=
EXTT6=
EXTT7=
EXTT8=
EXTT9=
EXTT10=
EXTT11=
EXTT12=
EXTT13=
EXTT14=
EXTT15=
EXTT16=
EXTT17=
PLAYORDER=
